<svg xmlns="http://www.w3.org/2000/svg" xmlns:xlink="http://www.w3.org/1999/xlink" width="1448" height="630" viewBox="0 0 1448 630">
  <defs>
    <clipPath id="clip-Web_1920_1">
      <rect width="1448" height="630"/>
    </clipPath>
  </defs>
  <g id="Web_1920_1" data-name="Web 1920 – 1" clip-path="url(#clip-Web_1920_1)">
    <path id="Path_2" data-name="Path 2" d="M1305.6,283.439c-25.455-50.926-89.136-76.381-145.527-77.049l-2.751,2.741c-4.512-66.066-10.956-142.191-68.119-180.317-76.4-44.54-159.147,25.455-190.978,95.486-12.717,38.21,6.378,82.747,31.821,120.947C764.56,499.866,573.586,754.485,318.967,926.361c-44.55-38.19-82.747-76.381-146.392-70.021-82.747,19.086-101.852,114.561-70.021,184.6,31.831,50.926,95.486,57.276,146.412,74.251l2.892-2.873c3.467,44.473,3.74,88.3,22.571,125.932,6.359,6.377,12.717,19.1,19.1,31.831,25.455,38.181,76.381,38.181,114.581,25.472,44.567-19.114,82.757-50.926,101.852-95.486,12.717-44.567-12.736-89.116-31.821-127.317,25.455-44.567,50.926-76.381,82.747-120.947,57.286-82.747,114.581-159.128,178.223-235.5,25.471-31.821,50.926-57.286,76.381-89.117,89.117-82.747,171.876-165.507,273.719-235.528,38.181,38.21,89.107,89.117,146.392,76.381,82.721-19.086,108.173-114.562,70-184.592Z" transform="translate(643.18 -639.033) rotate(42)" fill="#422f1b" stroke="#a08a66" stroke-width="20"/>
    <path id="noun-heart-4964394" d="M298.4,141.482c8.985-15.875,18.5-28.431,29.869-37.687,15.365-12.5,33.57-18.75,57.609-18.75a95.453,95.453,0,0,1,68.287,28.8,98.85,98.85,0,0,1,28.3,69.49c0,64.392-41.023,96.184-95.515,138.39-25.333,19.641-53.743,41.636-82.1,70.514a9.038,9.038,0,0,1-12.884,0c-28.374-28.875-56.77-50.891-82.12-70.533-54.472-42.192-95.515-74.02-95.515-138.374a98.827,98.827,0,0,1,28.322-69.493,95.377,95.377,0,0,1,68.265-28.8c24.038,0,42.244,6.25,57.609,18.75,11.371,9.274,20.884,21.827,29.869,37.687Z" transform="translate(1009.965 -165.543) rotate(30)" fill="#7c281f" fill-rule="evenodd"/>
    <path id="noun-heart-4964394-2" data-name="noun-heart-4964394" d="M281.517,136.305c8.161-14.419,16.8-25.824,27.129-34.23,13.956-11.354,30.49-17.03,52.325-17.03a86.7,86.7,0,0,1,62.024,26.161A89.783,89.783,0,0,1,448.7,174.323c0,58.485-37.26,87.361-86.754,125.7-23.009,17.84-48.814,37.817-74.573,64.047a8.209,8.209,0,0,1-11.7,0C249.9,337.839,224.11,317.842,201.086,300c-49.476-38.322-86.754-67.23-86.754-125.682A89.763,89.763,0,0,1,140.057,111.2a86.628,86.628,0,0,1,62-26.159c21.833,0,38.369,5.677,52.325,17.03,10.328,8.424,18.968,19.825,27.129,34.23Z" transform="translate(995.752 -140.926) rotate(30)" fill="#8b271d" fill-rule="evenodd"/>
    <g id="Group_1" data-name="Group 1" transform="matrix(0.985, -0.174, 0.174, 0.985, -180.508, -12.184)">
      <path id="Snappy_Pet_-_Outline" data-name="Snappy
Pet - Outline" d="M-241.23-275.1a78.884,78.884,0,0,1,46.644,15.642c19,13.864,29.9,34.7,29.9,57.158a68.633,68.633,0,0,1-1.191,12.61q2.275.859,4.468,1.862a81.13,81.13,0,0,1,17.782-2.261l34.508,2.11,1.421-.969c24.614-16.783,52.557-25.292,83.052-25.292a116.688,116.688,0,0,1,35.874,5.393A82.454,82.454,0,0,1,57.63-223.42a70.848,70.848,0,0,1,54.276,24.768q.958,1.056,1.91,2.2a68.911,68.911,0,0,1,14.237-12.309A82.449,82.449,0,0,1,174.59-223.42a70.85,70.85,0,0,1,54,24.449c14.363-15.877,34.655-24.789,57.179-24.789a74.117,74.117,0,0,1,38.418,10.285,76.9,76.9,0,0,1,27.3-7.307c1.995-.164,4.332-.258,6.7-.258,46.9,0,71.44,33.715,71.44,67.02a70.753,70.753,0,0,1-7.77,31.833l-.544,1.089-28.47,51.384c-7.61,14.776-9.859,25.388-10.267,31.43-2.338,27.487-11.028,54.767-25.909,82.1-29.448,55.346-67.962,67.065-95.04,67.065q-3.717,0-7.325-.259A65.721,65.721,0,0,1,263.37,143.9a73.634,73.634,0,0,1-2.893,20.219c-4.028,12.94-15.8,38.717-49.825,50.036.5,6.455,1.113,13.871,1.846,22.393,3.8,48.648,3.6,59.81,3.126,66.489C213.432,340.376,184.286,368,146.37,368c-31.814,0-58.121-19.039-68.657-49.688-1.6-4.441-3.088-9.622-4.629-21.828a73.957,73.957,0,0,1-10.566,2.472c-21.813,3.408-30.359,4.1-36.508,4.1a107.822,107.822,0,0,1-44.093-9.036c-25.01-11.139-53.815-33.9-67.829-80.391-3.514,1.509-7.387,3.127-11.67,4.866.144,2.121.213,4.1.213,5.981a94.042,94.042,0,0,1-2.737,22.786l-.44,1.76-.55,1.729A82.238,82.238,0,0,1-131.285,292.3a83.7,83.7,0,0,1-49.765,16.2,92.38,92.38,0,0,1-18.078-1.8s-21.992-6.275-34.685-15.792S-248.1,269.3-252.3,253.986c-2.8-21.417-4.266-48.2-4.266-71.666,0-22.05,1.339-47.839,3.98-76.649q.642-7.221,1.268-12.719A71.037,71.037,0,0,1-260.31,57.88q0-3.793.307-7.462A170.214,170.214,0,0,1-310.93,57.84c-25.732,0-49.836-5.09-71.643-15.128A72.4,72.4,0,0,1-425.89-23.8c0-17.208,5.789-34.2,16.742-49.133a94.93,94.93,0,0,1,19.958-20.205A170.1,170.1,0,0,1-401.1-106.42l-8.1-9.325c-15.48-17.774-18.73-35.432-18.73-47.115A66.692,66.692,0,0,1-411.964-205.7c20.034-24.715,48.543-42.416,84.757-52.621l1.761-.5,1.788-.383,67.533-14.547,1.364-.227A82.178,82.178,0,0,1-241.23-275.1Z" transform="translate(844 459.05)" fill="#c5af90"/>
      <path id="Snappy_Pet_-_Outline-2" data-name="Snappy
Pet - Outline" d="M-241.23-260.1a63.99,63.99,0,0,1,37.8,12.759c15.086,11.008,23.738,27.425,23.738,45.041a55.736,55.736,0,0,1-5.1,23.273,57.883,57.883,0,0,1,21.91,7.181,67.776,67.776,0,0,1,25.759-3.067l16.02,2.9,12.871,3.677q1.351-1.637,2.873-3.159l2.818-2.818,3.292-2.245c22.078-15.053,47.177-22.685,74.6-22.685,15.42,0,28.062,2.8,38.4,7.174a52.037,52.037,0,0,1,5.49-4.1A67.028,67.028,0,0,1,57.63-208.42a55.984,55.984,0,0,1,43.083,19.761,48.95,48.95,0,0,1,5.8,7.832c4.286,1.057,8.319,2.219,12.133,3.48A53.615,53.615,0,0,1,136.2-196.162,67.028,67.028,0,0,1,174.59-208.42a55.984,55.984,0,0,1,43.083,19.761,48.951,48.951,0,0,1,5.8,7.832c2.934.724,5.744,1.5,8.454,2.316a51.511,51.511,0,0,1,3.7-5.364c11.58-15.85,29.705-24.884,50.146-24.884,14.426,0,27.41,4.655,37.472,13.038q2.036-1.344,4.134-2.558a62.441,62.441,0,0,1,30.814-7.759c37.053,0,56.44,26.169,56.44,52.02a55.9,55.9,0,0,1-6.187,25.127L379.725-76.983c-7.109,13.792-11.379,26.837-12.112,37.688-2.14,25.142-10.234,50.439-24.117,75.937-26.017,48.9-58.9,59.238-81.866,59.238-7.319,0-13.4-1.476-21.743,7.505-1.674,10.727,8.483,26.146,8.483,40.515a58.64,58.64,0,0,1-2.315,16.1c-3.576,11.484-15.021,35.856-51.3,42.795.641,9.026,1.542,20.488,2.8,35.044,3.532,45.255,3.579,57.544,3.109,64.133C198.911,331.8,176.571,353,146.37,353c-25.211,0-46.083-15.16-54.472-39.564-1.975-5.477-3.841-12.831-6.046-40.048A58.326,58.326,0,0,1,60.178,284.14c-20.833,3.255-28.718,3.92-34.168,3.92a92.928,92.928,0,0,1-38-7.743c-24.626-10.968-53.434-35.046-63.646-87.869-8.118,3.989-19.977,9.242-38.134,16.344a106.435,106.435,0,0,1,1.4,15.689,79.037,79.037,0,0,1-2.289,19.148l-.325,1.3-.407,1.278A67.336,67.336,0,0,1-140.143,280.2a68.794,68.794,0,0,1-40.907,13.3c-5.049,0-22.742-2.039-38.568-9.607,0,0-14.887-6.951-19.628-32.068s-2.324-46.685-2.324-69.505c0-21.595,1.318-46.922,3.917-75.28.641-7.217,1.271-13.07,1.848-17.539A55.588,55.588,0,0,1-245.31,57.88c0-13.359,3.527-25.32,9.977-34.915q-2.91,1.813-5.984,3.486c-20.544,10.937-43.85,16.389-69.613,16.389-23.551,0-45.545-4.627-65.371-13.754C-397.815,19.444-410.89-.392-410.89-23.8c0-14,4.785-27.918,13.838-40.263a77.872,77.872,0,0,1,29.365-24.6l3.557-1.7a191.962,191.962,0,0,1-25.442-25.663l-8.317-9.572c-9.981-11.459-15.041-24-15.041-37.263a51,51,0,0,1,12.554-33.318c18.048-22.3,44.03-38.35,77.238-47.709l1.3-.367,1.322-.283,67.211-14.477A70.894,70.894,0,0,1-241.23-260.1Z" transform="translate(844 459.05)" fill="#ede5d5"/>
      <text id="Snappy_Pet" data-name="Snappy
Pet" transform="translate(842.389 455.444)" fill="#d5732f" stroke="#d5732f" stroke-width="3" font-size="350" font-family="GoodDogPlain, GoodDog Plain"><tspan x="-383.075" y="0">Snappy</tspan><tspan x="-211.925" y="251">Pet</tspan></text>
    </g>
  </g>
</svg>
